<?xml version="1.0" encoding="UTF-8"?>
<svg xmlns="http://www.w3.org/2000/svg" viewBox="0 0 300 420" width="100%" height="100%">
  <path d="M 20 0 Q 0 0 0 20 L 0 350 L 150 420 L 300 350 L 300 20 Q 300 0 280 0 Z" fill="#0c0c0c" stroke="#fbbf24" stroke-width="1.5" />
  <g opacity="0.3">
    <line x1="240" y1="0" x2="300" y2="60" stroke="#fbbf24" stroke-width="1.5" />
    <line x1="250" y1="0" x2="300" y2="50" stroke="#fbbf24" stroke-width="1.5" />
    <line x1="260" y1="0" x2="300" y2="40" stroke="#fbbf24" stroke-width="1.5" />
    <line x1="270" y1="0" x2="300" y2="30" stroke="#fbbf24" stroke-width="1.5" />
    <line x1="280" y1="0" x2="300" y2="20" stroke="#fbbf24" stroke-width="1.5" />
  </g>
  <path d="M 0 50 L 0 260 M 300 50 L 300 260" stroke="#ffffff" stroke-width="6" stroke-linecap="square" />
  <path d="M 0 45 L 20 45 L 0 25 Z" fill="#fbbf24" />
  <path d="M 300 45 L 280 45 L 300 25 Z" fill="#fbbf24" />
  <path d="M 0 260 L 25 285 L 0 310 Z" fill="#fbbf24" />
  <path d="M 0 265 L 20 285 L 0 305 Z" fill="#000000" />
  <path d="M 300 290 L 275 315 L 300 340 Z" fill="#fbbf24" />
  <path d="M 300 295 L 280 315 L 300 335 Z" fill="#000000" />
  <polygon points="45,85 225,85 255,115 255,245 150,275 75,275 45,245" fill="none" stroke="#fbbf24" stroke-width="5" />
  <polygon points="47,87 223,87 253,117 253,243 150,273 77,273 47,243" fill="#1b1b1b" stroke="#ffffff" stroke-width="1.5" />
  <circle cx="265" cy="130" r="23" fill="#000000" stroke="#fbbf24" stroke-width="4.5" />
  <circle cx="265" cy="130" r="19" fill="#0c0c0c" />
  <polygon points="0,20 180,20 205,45 205,60 185,80 0,80" fill="none" stroke="#fbbf24" stroke-width="4" />
  <polygon points="0,20 178,20 201,43 201,57 183,76 0,76" fill="#000000" />
  <path d="M 0 340 L 300 340 L 300 350 L 150 420 L 0 350 Z" fill="none" stroke="#fbbf24" stroke-width="4" />
  <path d="M 0 340 L 300 340 L 300 348 L 150 417 L 0 348 Z" fill="#000000" />
</svg>
